<svg xmlns="http://www.w3.org/2000/svg" viewBox="0 0 256 301">
  <path d="M20.5 201.5c0-6.1 4.9-11 11-11h11v-70.8h171v70.8h11c6.1 0 11 4.9 11 11v83.2c0 6.1-4.9 11-11 11h-11c-6.1 0-11-4.9-11-11v-83.2h-149v83.2c0 6.1-4.9 11-11 11h-11c-6.1 0-11-4.9-11-11v-83.2z" fill="#3DDC84" opacity="0"/>
  <g fill="#3DDC84">
    <path d="M128 32.8c-52.7 0-96.2 37.5-106 87.2h212C224.2 70.3 180.7 32.8 128 32.8z"/>
    <rect x="42.5" y="119.7" width="171" height="115.8" rx="8"/>
    <rect x="0" y="135.2" width="26" height="74.8" rx="13"/>
    <rect x="230" y="135.2" width="26" height="74.8" rx="13"/>
    <rect x="72" y="235.5" width="26" height="65" rx="13"/>
    <rect x="158" y="235.5" width="26" height="65" rx="13"/>
  </g>
  <circle cx="92" cy="72" r="8" fill="white"/>
  <circle cx="164" cy="72" r="8" fill="white"/>
  <line x1="68" y1="0" x2="92" y2="32" stroke="#3DDC84" stroke-width="6" stroke-linecap="round"/>
  <line x1="188" y1="0" x2="164" y2="32" stroke="#3DDC84" stroke-width="6" stroke-linecap="round"/>
</svg>
