<svg xmlns="http://www.w3.org/2000/svg" viewBox="0 0 256 351">
  <defs>
    <linearGradient id="fb1" x1="0%" y1="0%" x2="100%" y2="100%">
      <stop offset="0%" stop-color="#FFC24A"/>
      <stop offset="100%" stop-color="#F4BD62"/>
    </linearGradient>
    <linearGradient id="fb2" x1="0%" y1="0%" x2="100%" y2="100%">
      <stop offset="0%" stop-color="#F4BD62"/>
      <stop offset="100%" stop-color="#FFCB2B"/>
    </linearGradient>
  </defs>
  <path d="M0 282.998l2.123-2.972L102.527 89.512l.212-2.017L58.48 4.358C54.77-2.606 44.33-.845 43.114 6.951L0 282.998z" fill="#FFC24A"/>
  <path d="M135.005 150.38l32.955-33.75-32.965-62.93c-3.129-5.957-11.866-5.975-14.962 0L102.42 87.287v2.86l32.584 60.233z" fill="#F4BD62"/>
  <path d="M0 282.998l.962-.968 3.496-1.42 128.477-128 1.628-4.431-32.05-61.074z" fill="#F6820C"/>
  <path d="M139.121 347.551l116.275-64.847-33.204-204.495c-1.039-6.398-8.888-8.927-13.468-4.34L0 282.998l115.608 64.548a24.126 24.126 0 0023.513.005" fill="#FCCA3F"/>
  <path d="M255.395 282.704L222.191 78.208c-1.039-6.398-8.888-8.927-13.468-4.34L0 282.998l115.608 64.548a24.126 24.126 0 0023.513.005l116.275-64.847z" fill="#EEAB37"/>
</svg>
