<svg viewBox="0 0 64 64" xmlns="http://www.w3.org/2000/svg" fill="none" stroke="currentColor" stroke-width="3" stroke-linecap="round" stroke-linejoin="round">
  <line x1="32" y1="6" x2="54" y2="18" />
  <line x1="54" y1="18" x2="54" y2="46" />
  <line x1="54" y1="46" x2="32" y2="58" />
  <line x1="32" y1="58" x2="10" y2="46" />
  <line x1="10" y1="46" x2="10" y2="18" />
  <line x1="10" y1="18" x2="32" y2="6" />
  <line x1="32" y1="6" x2="32" y2="32" />
  <line x1="54" y1="18" x2="32" y2="32" />
  <line x1="54" y1="46" x2="32" y2="32" />
  <line x1="32" y1="58" x2="32" y2="32" />
  <line x1="10" y1="46" x2="32" y2="32" />
  <line x1="10" y1="18" x2="32" y2="32" />
  <circle cx="32" cy="6" r="3.5" />
  <circle cx="54" cy="18" r="3.5" />
  <circle cx="54" cy="46" r="3.5" />
  <circle cx="32" cy="58" r="3.5" />
  <circle cx="10" cy="46" r="3.5" />
  <circle cx="10" cy="18" r="3.5" />
  <circle cx="32" cy="32" r="3.5" />
</svg>
